<svg xmlns="http://www.w3.org/2000/svg" width="100.747" height="61.813" viewBox="0 0 100.747 61.813"><g transform="translate(-70.7 -272.9)"><g transform="translate(70.7 317.082)"><g transform="translate(0)"><path d="M93.579,747.248h-.4c-5.89-.113-9.118-2.492-10.392-3.709-1.293,1.208-4.691,3.483-12.072,3.568l-.019-1.6c8.919-.1,11.4-3.558,11.421-3.6l.632-.916.67.878c.113.142,2.85,3.634,9.788,3.775,6.843.132,9.287-3.558,9.391-3.719l.557-.878.708.765c3.436,3.775,9.958,3.681,10.014,3.681l.038,1.6c-.283,0-6.569.094-10.571-3.549C102.177,744.832,99.233,747.248,93.579,747.248Z" transform="translate(-70.7 -741)" fill="#edece6"/></g><g transform="translate(57.235 0.236)"><path d="M677.5,749.588h-.4l.028-1.6c6.975.113,10.467-3.785,10.5-3.823l.585-.67.6.661c3.436,3.766,9.948,3.681,10.014,3.681l.038,1.6c-.293,0-6.645.1-10.647-3.615A15.867,15.867,0,0,1,677.5,749.588Z" transform="translate(-677.1 -743.5)" fill="#edece6"/></g><g transform="translate(41.643 11.383)"><path d="M534.779,867.848h-.4c-5.88-.113-9.118-2.492-10.392-3.709-1.293,1.208-4.691,3.483-12.072,3.568l-.019-1.6c8.919-.1,11.4-3.558,11.421-3.6l.632-.916.67.878c.113.142,2.85,3.634,9.788,3.775,6.9.123,9.363-3.672,9.391-3.709l.557-.9.708.783c3.445,3.785,9.958,3.681,10.014,3.681l.038,1.6c-.283,0-6.569.094-10.571-3.549C543.377,865.432,540.423,867.848,534.779,867.848Z" transform="translate(-511.9 -861.6)" fill="#edece6"/></g><g transform="translate(10.732 9.797)"><path d="M184.8,850.888h-.4l.028-1.6c6.966.123,10.467-3.775,10.5-3.823l.585-.67.6.661c3.436,3.775,9.958,3.681,10.014,3.681l.038,1.6c-.283,0-6.645.094-10.647-3.615A15.91,15.91,0,0,1,184.8,850.888Z" transform="translate(-184.4 -844.8)" fill="#edece6"/></g><g transform="translate(78.972 4.2)"><path d="M907.8,791.588h-.4l.028-1.6h.359c6.72,0,10.109-3.785,10.146-3.823l.585-.67.6.661c3.445,3.785,9.958,3.681,10.014,3.681l.038,1.6c-.283,0-6.645.1-10.647-3.615A15.964,15.964,0,0,1,907.8,791.588Z" transform="translate(-907.4 -785.5)" fill="#edece6"/></g></g><g transform="translate(91.927 272.9)"><path d="M604.7,292.5s11.977,20.9,23.945,38.009h-23.3Z" transform="translate(-575.526 -290.65)" fill="#edece6"/><path d="M324.774,331.7s-14.063,19.207-29.174,34.318l30.439-.066Z" transform="translate(-295.6 -326.15)" fill="#edece6"/><path d="M488.238,279.7,476.1,281.465l12.459,3.143Z" transform="translate(-459.063 -279.058)" fill="#ffa230"/><path d="M599.088,318.79l-1.2-45.89H596.2l.8,45.89Z" transform="translate(-567.828 -272.9)" fill="#1b1464"/><path d="M309.386,728.357s1.048,1.916,6.39,2.473H321.5c4.927-.557,6.73-2.473,6.73-2.473a15.026,15.026,0,0,0,6.815,2.473h1.4L348.82,719.9c-42.435,5.54-53.12.887-53.12.887l2.964,10C306.979,730.462,309.386,728.357,309.386,728.357Z" transform="translate(-295.691 -677.71)" fill="#1b1464"/></g></g></svg>